<?xml version="1.0" encoding="UTF-8" standalone="no"?>
<!DOCTYPE svg PUBLIC "-//W3C//DTD SVG 1.1//EN" "http://www.w3.org/Graphics/SVG/1.1/DTD/svg11.dtd">
<svg width="10.29" height="10.29" viewBox="0.00 0.00 50.00 50.00" xmlns="http://www.w3.org/2000/svg" xmlns:xlink="http://www.w3.org/1999/xlink">
<g stroke-linecap="round" id="圖層_4">
<path d="M10.15,9.13 C10.14,9.27 10.08,9.61 10.08,9.65 C10.08,9.86 10.53,21.06 11.64,25.81 C12.34,28.74 13.16,30.32 13.30,30.49 C13.36,30.55 13.48,30.65 13.66,30.80" fill="none" stroke="rgb(255, 255, 255)" stroke-width="1.50" stroke-opacity="1.00" stroke-linejoin="round"/>
<path d="M10.50,9.00 C10.50,9.00 10.18,8.98 10.18,8.98 C12.09,8.51 14.92,8.02 17.12,7.80 C31.76,6.39 37.58,7.82 37.65,7.87 C38.52,9.58 36.03,27.96 35.79,28.28 C35.72,28.30 35.65,28.32 35.60,28.33 C35.54,28.35 35.42,28.37 35.24,28.41" fill="none" stroke="rgb(255, 255, 255)" stroke-width="1.50" stroke-opacity="1.00" stroke-linejoin="round"/>
<path d="M4.38,32.38 C4.38,32.38 4.40,32.43 4.40,32.43 C4.76,32.40 9.10,31.66 12.60,31.13 C14.88,30.79 30.87,28.58 33.40,28.47 C35.25,28.39 47.17,28.48 48.35,28.36 C48.19,28.43 43.14,31.50 40.01,32.93 C39.16,33.32 38.49,33.57 38.08,33.70" fill="none" stroke="rgb(255, 255, 255)" stroke-width="1.50" stroke-opacity="1.00" stroke-linejoin="round"/>
<path d="M4.50,33.12 C4.50,33.12 4.62,33.15 4.62,33.15 C4.59,33.01 4.59,32.98 4.59,32.98 C4.41,33.37 4.17,39.26 4.48,39.39 C5.99,39.89 10.24,39.00 10.72,38.91 C10.69,38.85 10.66,38.80 10.64,38.78 C10.63,38.76 10.59,38.73 10.53,38.69" fill="none" stroke="rgb(255, 255, 255)" stroke-width="1.50" stroke-opacity="1.00" stroke-linejoin="round"/>
<path d="M9.12,34.75 C9.14,34.78 9.16,34.80 9.18,34.81 C9.50,35.07 9.60,35.19 9.58,35.21 C9.58,35.21 9.21,34.90 9.21,34.90" fill="none" stroke="rgb(255, 255, 255)" stroke-width="1.50" stroke-opacity="1.00" stroke-linejoin="round"/>
<path d="M10.25,39.00 C10.25,39.00 10.28,39.04 10.28,39.04 C10.71,38.88 11.29,38.74 12.12,38.60 C14.94,38.14 19.29,37.82 19.75,37.77 C19.68,37.79 19.64,37.81 19.62,37.82 C19.60,37.83 19.58,37.84 19.55,37.84" fill="none" stroke="rgb(255, 255, 255)" stroke-width="1.50" stroke-opacity="1.00" stroke-linejoin="round"/>
<path d="M14.00,39.12 C14.00,39.12 14.03,39.37 14.03,39.37 C14.03,39.37 8.45,44.71 8.45,44.71 C8.49,44.82 11.03,46.34 11.39,46.38 C12.17,46.40 15.31,41.99 16.14,41.40 C16.14,41.40 16.01,41.37 16.01,41.37" fill="none" stroke="rgb(255, 255, 255)" stroke-width="1.50" stroke-opacity="1.00" stroke-linejoin="round"/>
<path d="M16.50,39.12 C16.50,39.12 16.57,39.14 16.57,39.14 C16.58,42.05 16.70,46.60 16.97,46.67 C17.42,46.76 19.03,46.47 19.73,46.17 C20.38,45.87 21.79,38.70 21.85,38.15 C21.85,38.15 31.50,36.69 31.50,36.69 C31.50,36.69 31.23,36.62 31.23,36.62" fill="none" stroke="rgb(255, 255, 255)" stroke-width="1.50" stroke-opacity="1.00" stroke-linejoin="round"/>
<path d="M31.38,37.00 C31.38,37.00 31.46,37.00 31.46,37.00 C31.46,37.00 26.43,43.13 26.43,43.13 C26.43,43.13 30.05,45.20 30.05,45.20 C31.19,44.68 34.81,37.67 34.84,37.63 C34.94,37.52 37.86,34.55 39.23,33.56 C39.26,33.54 39.29,33.51 39.33,33.47" fill="none" stroke="rgb(255, 255, 255)" stroke-width="1.50" stroke-opacity="1.00" stroke-linejoin="round"/>
<path d="M38.29,34.88 C38.31,34.91 38.32,34.93 38.33,34.94 C38.33,34.95 39.12,44.47 39.39,46.26 C39.39,46.26 34.31,47.07 34.31,47.07 C34.31,47.07 34.67,38.97 34.67,38.97" fill="none" stroke="rgb(255, 255, 255)" stroke-width="1.50" stroke-opacity="1.00" stroke-linejoin="round"/>
<path d="M13.37,14.87 C13.37,14.87 13.29,14.81 13.29,14.81 C13.38,14.83 14.63,14.59 16.15,14.04 C19.37,12.87 21.37,11.56 21.36,11.53 C21.36,11.53 20.89,11.62 20.89,11.62" fill="none" stroke="rgb(255, 255, 255)" stroke-width="1.50" stroke-opacity="1.00" stroke-linejoin="round"/>
<path d="M14.99,14.59 C14.99,14.59 15.20,14.50 15.20,14.50 C15.35,14.59 15.63,14.91 15.80,15.30 C15.96,15.66 18.23,26.24 18.31,26.58 C18.31,26.58 17.83,25.13 17.83,25.13" fill="none" stroke="rgb(255, 255, 255)" stroke-width="1.50" stroke-opacity="1.00" stroke-linejoin="round"/>
<path d="M16.88,22.12 C16.88,22.12 16.91,22.17 16.91,22.17 C17.10,21.88 17.56,21.41 18.40,20.70 C20.03,19.30 22.58,17.35 22.74,17.24 C22.69,17.23 22.66,17.23 22.63,17.23 C22.61,17.23 22.56,17.25 22.48,17.27" fill="none" stroke="rgb(255, 255, 255)" stroke-width="1.50" stroke-opacity="1.00" stroke-linejoin="round"/>
<path d="M24.88,12.38 C24.96,12.42 24.97,12.41 24.97,12.42 C25.16,12.76 25.49,13.40 25.64,13.78 C26.28,15.49 27.94,23.36 28.11,23.89 C28.11,23.89 27.17,22.45 27.17,22.45" fill="none" stroke="rgb(255, 255, 255)" stroke-width="1.50" stroke-opacity="1.00" stroke-linejoin="round"/>
<path d="M24.75,14.62 C24.75,14.62 24.78,14.69 24.78,14.69 C24.54,14.08 25.94,12.83 27.46,12.57 C29.26,12.29 30.97,13.50 30.69,14.74 C30.35,16.17 28.41,18.13 26.71,19.43 C30.20,17.91 33.01,18.18 33.56,18.81 C34.14,19.51 33.86,21.15 32.83,22.17 C31.21,23.74 27.72,25.29 27.35,25.24 C27.35,25.24 27.21,24.84 27.21,24.84" fill="none" stroke="rgb(255, 255, 255)" stroke-width="1.50" stroke-opacity="1.00" stroke-linejoin="round"/>
</g>
</svg>
