<?xml version="1.0" encoding="UTF-8" standalone="no"?>
<!DOCTYPE svg PUBLIC "-//W3C//DTD SVG 1.1//EN" "http://www.w3.org/Graphics/SVG/1.1/DTD/svg11.dtd">
<svg width="133.71" height="133.71" viewBox="0.00 0.00 650.00 650.00" xmlns="http://www.w3.org/2000/svg" xmlns:xlink="http://www.w3.org/1999/xlink">
<g stroke-linecap="round" id="圖層_4">
<path d="M43.87,258.64 C43.87,258.64 44.18,259.51 44.18,259.51 C46.09,254.38 56.50,236.12 60.12,230.79 C63.11,226.38 73.80,214.20 79.84,208.85 C88.95,201.12 116.66,180.65 135.28,165.97 C145.06,158.12 173.20,137.20 187.70,127.63 C204.23,116.97 217.83,109.09 237.38,98.97 C252.90,91.28 270.41,83.88 282.46,79.65 C285.11,78.78 290.91,76.94 294.05,75.97 C295.33,75.60 312.48,68.50 318.66,66.55 C324.00,64.95 338.99,60.80 346.27,59.85 C356.91,58.55 387.81,58.29 400.63,57.38 C415.54,56.14 441.40,54.10 449.64,54.00 C453.62,53.92 470.06,52.91 477.30,53.02 C497.94,53.87 507.77,54.56 517.49,54.62 C517.49,54.62 518.59,54.66 518.59,54.66" fill="none" stroke="rgb(255, 255, 255)" stroke-width="15.00" stroke-opacity="1.00" stroke-linejoin="round"/>
<path d="M526.37,50.88 C526.35,50.97 526.31,51.04 526.26,51.11 C525.94,51.56 525.53,54.89 525.33,55.48 C523.26,61.71 517.02,80.15 517.46,83.58 C517.55,84.19 513.84,116.63 513.05,124.38 C512.49,129.87 511.72,151.80 510.96,158.19 C510.17,164.14 503.08,196.49 500.80,206.36 C500.04,209.41 497.79,218.40 497.69,220.04 C497.58,221.90 499.94,232.37 500.09,233.69 C500.40,236.75 498.03,243.29 496.75,254.08 C496.70,252.15 496.53,247.79 495.83,246.49 C495.29,245.57 491.37,243.04 489.54,242.58 C487.33,242.07 481.98,243.26 480.53,243.38 C476.88,243.66 459.17,239.81 452.83,238.37 C442.99,236.39 425.73,234.80 418.75,234.05 C402.92,231.56 376.20,227.74 358.72,226.02 C345.87,224.99 313.00,222.82 299.67,222.29 C288.55,222.06 265.71,221.78 253.99,221.73 C232.40,221.78 219.34,222.13 195.11,224.17 C177.50,225.80 149.55,229.46 133.74,231.59 C121.63,233.40 99.97,237.45 88.04,240.10 C73.58,243.56 55.00,248.01 54.50,248.22 C54.50,248.22 53.39,248.96 53.39,248.96" fill="none" stroke="rgb(255, 255, 255)" stroke-width="15.00" stroke-opacity="1.00" stroke-linejoin="round"/>
<path d="M337.43,92.78 C337.43,92.78 338.07,92.84 338.07,92.84 C332.17,95.22 326.97,98.07 323.13,102.19 C319.44,106.16 314.65,112.67 312.36,116.54 C306.88,126.11 300.56,140.66 298.95,148.21 C297.88,153.29 296.92,162.39 296.94,166.55 C296.98,171.63 298.68,180.50 299.93,184.38 C301.54,189.27 305.39,197.14 308.08,201.15 C310.94,205.41 315.77,211.00 319.89,214.53 C324.22,218.22 331.63,222.99 336.21,225.00 C340.31,226.78 348.35,229.00 352.60,229.46 C358.26,230.05 367.57,230.01 372.06,229.26 C381.64,227.63 400.19,220.97 406.50,217.52 C411.55,214.74 418.31,209.26 421.79,205.10 C424.13,202.28 429.00,194.30 431.00,189.98 C432.67,186.36 435.77,178.15 436.84,173.43 C437.88,168.75 438.69,158.64 438.66,154.16 C438.61,148.84 437.62,138.99 436.36,134.86 C434.82,129.91 430.06,118.87 428.54,116.43 C426.35,112.94 417.77,103.90 413.74,100.46 C409.30,96.70 400.82,91.35 395.29,88.57 C390.77,86.31 381.76,82.68 374.71,80.32 C372.35,79.48 371.25,79.40 369.07,79.90 C368.60,80.02 356.98,82.99 350.71,85.06 C343.48,87.45 338.56,89.39 333.73,92.20 C326.14,96.67 321.82,100.05 321.43,100.36 C321.17,100.57 320.83,100.87 320.66,101.01" fill="none" stroke="rgb(255, 255, 255)" stroke-width="15.00" stroke-opacity="1.00" stroke-linejoin="round"/>
<path d="M366.33,156.01 C366.33,156.01 364.11,159.50 364.11,159.50 C364.09,156.93 364.36,154.30 364.94,152.81 C365.41,151.62 366.54,150.55 367.79,149.79 C367.79,149.79 358.55,149.77 358.55,149.77" fill="none" stroke="rgb(255, 255, 255)" stroke-width="15.00" stroke-opacity="1.00" stroke-linejoin="round"/>
<path d="M88.11,250.59 C87.29,250.15 86.82,250.00 86.68,250.14 C85.35,251.61 90.05,266.52 94.17,277.34 C97.20,285.03 103.14,299.77 106.05,306.81 C109.29,314.22 114.84,325.03 117.79,329.08 C117.55,325.75 114.12,310.77 113.21,303.53 C112.62,298.54 111.60,284.78 111.72,279.19 C111.87,273.31 113.56,262.43 115.47,256.05 C118.19,247.09 120.57,243.16 122.37,240.61" fill="none" stroke="rgb(255, 255, 255)" stroke-width="15.00" stroke-opacity="1.00" stroke-linejoin="round"/>
<path d="M140.23,237.45 C140.23,237.45 140.39,238.82 140.39,238.82 C139.29,242.44 139.12,250.75 139.12,252.65 C139.13,259.56 140.67,270.47 142.47,279.43 C144.05,286.81 147.88,298.86 150.29,304.10 C153.24,310.47 160.83,322.37 163.45,325.06 C163.19,319.08 162.47,309.66 162.65,298.96 C162.86,292.39 164.56,276.38 165.60,269.08 C166.83,261.78 170.05,245.23 171.38,241.80 C173.57,236.26 174.55,234.29 174.84,234.07 C174.84,234.07 175.75,235.42 175.75,235.42" fill="none" stroke="rgb(255, 255, 255)" stroke-width="15.00" stroke-opacity="1.00" stroke-linejoin="round"/>
<path d="M188.12,230.14 C187.51,235.99 188.00,246.56 188.91,256.84 C189.45,262.06 192.34,279.60 193.62,286.76 C195.00,293.99 199.82,307.39 201.34,310.49 C203.07,313.92 204.88,316.03 205.40,316.11 C206.38,315.81 206.43,298.47 206.44,290.93 C206.57,283.48 208.34,268.74 209.56,263.37 C211.33,255.59 215.36,242.91 218.90,235.21 C220.55,231.63 223.67,225.68 225.04,223.11" fill="none" stroke="rgb(255, 255, 255)" stroke-width="15.00" stroke-opacity="1.00" stroke-linejoin="round"/>
<path d="M237.42,230.14 C238.17,230.75 238.26,231.20 237.79,233.03 C236.84,236.92 238.93,253.96 240.17,260.75 C241.56,268.32 246.14,285.89 248.53,290.46 C249.82,292.88 251.79,295.25 252.55,296.05 C253.30,293.84 253.52,275.92 254.60,269.50 C255.80,262.63 262.27,244.29 263.60,241.07 C264.25,239.51 270.03,227.37 270.62,226.11" fill="none" stroke="rgb(255, 255, 255)" stroke-width="15.00" stroke-opacity="1.00" stroke-linejoin="round"/>
<path d="M283.90,222.84 C283.90,222.84 284.21,223.16 284.21,223.16 C284.28,224.39 283.92,228.13 284.34,233.42 C285.07,241.63 287.02,261.17 287.57,264.77 C288.60,271.30 289.82,275.64 291.30,279.75 C293.47,285.68 296.93,289.42 298.48,290.68 C298.63,289.15 299.04,271.07 300.43,263.89 C301.65,257.67 305.66,244.68 309.02,236.53 C310.60,232.78 313.94,226.77 315.57,223.93 C316.44,222.34 317.33,220.54 317.82,219.42" fill="none" stroke="rgb(255, 255, 255)" stroke-width="15.00" stroke-opacity="1.00" stroke-linejoin="round"/>
<path d="M333.20,224.30 C332.95,225.46 331.58,228.00 331.19,229.01 C330.76,230.16 331.91,248.28 332.46,256.06 C333.27,264.13 335.81,282.65 336.69,286.24 C338.26,292.50 342.18,299.20 343.22,299.55 C344.04,298.69 344.44,295.56 344.89,290.72 C345.68,281.32 347.84,271.62 350.20,263.66 C354.22,250.26 361.68,237.74 365.20,232.09 C366.00,230.83 367.09,229.09 367.58,228.25" fill="none" stroke="rgb(255, 255, 255)" stroke-width="15.00" stroke-opacity="1.00" stroke-linejoin="round"/>
<path d="M445.77,238.32 C445.43,238.98 445.19,239.41 445.05,239.60 C444.87,239.84 414.11,265.93 405.22,273.57 C396.57,281.08 372.41,302.11 362.79,309.86 C352.87,317.56 325.33,335.59 313.57,343.05 C301.58,350.50 276.99,365.51 264.39,373.07 C250.50,381.07 227.00,394.53 217.41,399.98 C204.92,406.98 170.92,425.66 160.86,429.47 C159.29,430.06 157.33,430.65 155.96,431.03 C159.17,431.62 165.31,432.73 168.24,433.27 C170.73,433.70 175.91,434.67 183.02,435.28 C189.38,435.77 201.37,435.94 207.92,435.66 C212.36,435.41 234.12,433.52 238.14,432.91 C248.92,431.13 278.61,423.26 291.19,418.98 C295.25,417.53 310.60,411.58 328.32,403.81 C334.24,401.11 344.79,396.35 354.62,392.24 C361.54,389.25 398.23,368.63 403.51,364.45 C405.26,363.06 423.06,350.26 425.76,348.01 C427.80,346.30 439.29,335.33 443.72,331.06 C449.36,325.43 457.68,316.52 462.95,310.21 C467.42,304.71 473.24,295.88 479.58,285.24 C481.60,281.72 489.11,266.75 491.75,261.40 C498.00,248.32 499.27,242.97 499.34,242.64 C499.37,242.48 499.41,242.24 499.43,242.15" fill="none" stroke="rgb(255, 255, 255)" stroke-width="15.00" stroke-opacity="1.00" stroke-linejoin="round"/>
<path d="M168.39,414.25 C168.39,414.25 167.75,413.77 167.75,413.77 C166.76,415.22 166.84,417.85 166.87,418.82 C166.89,419.29 166.80,420.01 166.61,420.97 C163.46,416.46 159.24,404.41 157.36,396.77 C155.46,389.01 153.83,374.32 153.69,366.07 C153.55,356.75 153.82,352.66 153.99,351.49 C157.22,358.46 163.49,369.64 166.96,375.72 C169.41,379.88 173.85,385.93 175.64,388.11 C178.04,391.03 182.83,395.12 184.97,396.48 C186.37,397.38 189.85,399.30 190.07,399.47 C190.75,399.98 194.69,403.54 195.56,404.24 C195.56,404.24 192.17,399.19 192.17,399.19" fill="none" stroke="rgb(255, 255, 255)" stroke-width="15.00" stroke-opacity="1.00" stroke-linejoin="round"/>
<path d="M207.84,402.57 C207.84,402.57 208.22,403.58 208.22,403.58 C208.00,403.56 201.45,388.94 198.11,377.12 C196.15,370.18 194.21,359.68 193.33,350.21 C193.01,346.16 192.50,339.47 192.31,336.81 C198.30,345.64 205.79,355.92 210.50,361.17 C213.17,364.12 220.72,371.48 221.78,372.35 C226.60,376.28 232.26,378.28 233.93,378.84 C233.93,378.84 233.23,377.06 233.23,377.06" fill="none" stroke="rgb(255, 255, 255)" stroke-width="15.00" stroke-opacity="1.00" stroke-linejoin="round"/>
<path d="M247.28,371.88 C247.28,371.88 248.10,372.85 248.10,372.85 C247.95,374.20 247.83,374.92 247.74,375.02 C247.08,375.58 241.41,357.77 239.67,349.83 C237.47,339.07 233.76,315.19 233.07,310.16 C238.88,320.06 245.05,329.80 249.77,335.68 C254.73,341.80 265.61,351.74 268.12,353.05 C271.39,354.73 274.28,356.05 276.03,356.78" fill="none" stroke="rgb(255, 255, 255)" stroke-width="15.00" stroke-opacity="1.00" stroke-linejoin="round"/>
<path d="M157.40,453.95 C157.40,453.95 157.87,453.98 157.87,453.98 C158.62,455.37 159.38,457.92 159.76,458.80 C160.09,459.54 165.86,465.00 168.46,467.42 C171.40,470.18 174.05,473.60 176.13,477.40 C179.36,483.37 182.68,493.72 184.09,500.93 C184.97,505.52 186.12,521.64 186.46,529.72 C186.59,537.34 186.66,553.21 186.61,561.46 C186.42,569.81 186.13,583.70 186.02,589.25 C186.16,587.55 186.17,586.28 186.03,583.81 C185.66,577.65 185.02,572.61 184.29,569.73" fill="none" stroke="rgb(255, 255, 255)" stroke-width="15.00" stroke-opacity="1.00" stroke-linejoin="round"/>
<path d="M160.86,471.13 C160.73,470.30 160.62,469.71 160.53,469.35 C160.35,468.62 159.83,465.64 160.17,464.40 C160.65,462.78 165.40,458.51 167.24,455.89 C167.24,455.89 169.50,453.94 169.50,453.94 C170.95,454.81 171.86,455.23 172.23,455.21 C172.95,455.17 173.13,454.08 173.69,453.64 C174.86,452.75 186.62,453.12 190.71,454.05 C194.95,455.04 202.11,457.69 207.55,460.51 C213.04,463.42 221.10,469.21 224.99,472.68 C228.04,475.42 235.36,483.90 237.52,487.43 C238.51,489.08 239.80,492.54 239.10,494.09 C238.19,495.94 229.82,499.22 225.37,500.39 C222.31,501.20 206.60,504.44 205.56,505.01 C204.48,505.62 203.31,506.94 202.86,507.86 C203.22,508.97 205.40,510.70 207.82,511.82 C211.37,513.42 218.81,514.52 226.23,515.22 C236.64,516.10 242.24,516.72 246.03,518.13 C249.86,519.57 258.97,524.90 262.37,527.83 C267.47,532.29 282.63,551.57 288.21,556.25 C292.21,559.58 300.80,564.84 305.25,566.54 C309.97,568.31 317.95,568.84 320.02,568.15 C320.02,568.15 319.13,564.24 319.13,564.24" fill="none" stroke="rgb(255, 255, 255)" stroke-width="15.00" stroke-opacity="1.00" stroke-linejoin="round"/>
<path d="M286.37,486.49 C286.62,487.68 286.56,489.44 286.49,490.66 C286.57,492.50 287.87,494.71 289.88,496.34 C292.45,498.36 296.81,500.65 299.44,501.48 C302.00,502.26 307.20,503.21 310.16,503.36 C313.36,503.51 319.82,503.13 322.54,502.49 C325.03,501.89 330.69,499.69 332.88,498.53 C335.24,497.25 339.14,494.05 341.09,491.80 C342.83,489.74 344.68,484.91 344.94,482.48 C345.10,480.30 344.79,477.76 343.93,476.58 C342.18,474.24 336.96,470.20 335.31,469.27 C333.83,468.45 328.56,466.88 325.71,467.33 C324.00,467.63 315.30,471.42 312.44,473.55 C310.81,474.79 305.83,479.91 304.85,482.08 C304.19,483.60 303.34,489.31 303.63,491.92 C303.91,494.37 305.12,498.76 306.14,500.94 C307.37,503.52 311.39,509.29 313.72,511.47 C315.80,513.37 320.61,516.71 323.79,518.41 C327.22,520.21 333.65,522.71 337.49,523.58 C344.37,525.10 360.30,525.64 365.26,524.58 C371.42,523.22 383.19,517.13 387.49,513.74 C389.58,512.08 395.03,506.86 396.55,504.76 C398.13,502.53 400.41,496.74 401.10,493.44 C401.54,491.17 401.86,487.44 401.53,486.24 C401.20,485.10 399.65,483.30 398.50,482.27" fill="none" stroke="rgb(255, 255, 255)" stroke-width="15.00" stroke-opacity="1.00" stroke-linejoin="round"/>
<path d="M393.98,443.21 C393.98,443.21 392.15,445.88 392.15,445.88 C394.96,444.72 401.32,442.04 403.35,440.80 C404.78,439.91 409.90,435.61 412.22,433.12 C413.35,431.85 415.41,428.96 415.51,428.01 C415.56,427.54 415.27,426.80 414.64,425.81" fill="none" stroke="rgb(255, 255, 255)" stroke-width="15.00" stroke-opacity="1.00" stroke-linejoin="round"/>
<path d="M415.34,452.14 C415.34,452.14 415.61,453.17 415.61,453.17 C420.61,453.89 432.92,455.76 435.02,456.64 C439.14,458.39 445.80,462.05 449.39,465.25 C454.30,469.69 460.54,477.00 464.16,482.17 C468.02,487.69 472.24,496.73 471.82,499.68 C471.64,500.70 468.44,504.96 466.87,506.27 C463.55,509.00 456.35,512.84 451.46,513.87 C448.93,514.39 444.72,514.44 442.67,513.81 C442.10,513.63 439.15,512.39 438.75,511.93 C437.98,511.03 436.38,505.66 436.40,503.75 C436.42,502.78 436.97,501.31 438.24,498.58" fill="none" stroke="rgb(255, 255, 255)" stroke-width="15.00" stroke-opacity="1.00" stroke-linejoin="round"/>
<path d="M451.00,388.17 C451.00,388.17 454.15,388.08 454.15,388.08 C454.15,388.08 456.98,387.59 456.98,387.59 C456.98,387.59 462.24,389.02 462.24,389.02 C462.24,389.02 465.76,388.10 465.76,388.10 C465.76,388.10 468.05,386.19 468.05,386.19 C468.05,386.19 480.88,385.79 480.88,385.79" fill="none" stroke="rgb(255, 255, 255)" stroke-width="15.00" stroke-opacity="1.00" stroke-linejoin="round"/>
<path d="M474.18,406.00 C474.18,406.00 475.26,408.14 475.26,408.14 C477.86,409.17 478.93,409.97 480.02,411.89 C480.74,413.18 482.95,415.33 483.48,416.09 C484.52,417.57 496.74,450.46 497.82,452.97 C499.86,457.65 505.29,467.07 508.30,470.84 C511.15,474.38 515.55,479.00 516.06,479.54" fill="none" stroke="rgb(255, 255, 255)" stroke-width="15.00" stroke-opacity="1.00" stroke-linejoin="round"/>
</g>
</svg>
