<?xml version="1.0" encoding="UTF-8" standalone="no"?>
<!DOCTYPE svg PUBLIC "-//W3C//DTD SVG 1.1//EN" "http://www.w3.org/Graphics/SVG/1.1/DTD/svg11.dtd">
<svg width="10.29" height="10.29" viewBox="0.00 0.00 50.00 50.00" xmlns="http://www.w3.org/2000/svg" xmlns:xlink="http://www.w3.org/1999/xlink">
<g stroke-linecap="round" id="圖層_4">
<path d="M4.38,32.38 C4.38,32.38 4.40,32.43 4.40,32.43 C4.76,32.40 9.10,31.66 12.60,31.13 C14.88,30.79 30.87,28.58 33.40,28.47 C35.25,28.39 47.17,28.48 48.35,28.36 C48.19,28.43 43.14,31.50 40.01,32.93 C39.16,33.32 38.49,33.57 38.08,33.70" fill="none" stroke="rgb(255, 255, 255)" stroke-width="1.50" stroke-opacity="1.00" stroke-linejoin="round"/>
<path d="M4.50,33.12 C4.50,33.12 4.62,33.15 4.62,33.15 C4.59,33.01 4.59,32.98 4.59,32.98 C4.41,33.37 4.17,39.26 4.48,39.39 C5.99,39.89 10.24,39.00 10.72,38.91 C10.69,38.85 10.66,38.80 10.64,38.78 C10.63,38.76 10.59,38.73 10.53,38.69" fill="none" stroke="rgb(255, 255, 255)" stroke-width="1.50" stroke-opacity="1.00" stroke-linejoin="round"/>
<path d="M9.12,34.75 C9.14,34.78 9.16,34.80 9.18,34.81 C9.50,35.07 9.60,35.19 9.58,35.21 C9.58,35.21 9.21,34.90 9.21,34.90" fill="none" stroke="rgb(255, 255, 255)" stroke-width="1.50" stroke-opacity="1.00" stroke-linejoin="round"/>
<path d="M10.25,39.00 C10.25,39.00 10.28,39.04 10.28,39.04 C10.71,38.88 11.29,38.74 12.12,38.60 C14.94,38.14 19.29,37.82 19.75,37.77 C19.68,37.79 19.64,37.81 19.62,37.82 C19.60,37.83 19.58,37.84 19.55,37.84" fill="none" stroke="rgb(255, 255, 255)" stroke-width="1.50" stroke-opacity="1.00" stroke-linejoin="round"/>
<path d="M14.00,39.12 C14.00,39.12 14.03,39.37 14.03,39.37 C14.03,39.37 8.45,44.71 8.45,44.71 C8.49,44.82 11.03,46.34 11.39,46.38 C12.17,46.40 15.31,41.99 16.14,41.40 C16.14,41.40 16.01,41.37 16.01,41.37" fill="none" stroke="rgb(255, 255, 255)" stroke-width="1.50" stroke-opacity="1.00" stroke-linejoin="round"/>
<path d="M16.50,39.12 C16.50,39.12 16.57,39.14 16.57,39.14 C16.58,42.05 16.70,46.60 16.97,46.67 C17.42,46.76 19.03,46.47 19.73,46.17 C20.38,45.87 21.79,38.70 21.85,38.15 C21.85,38.15 31.50,36.69 31.50,36.69 C31.50,36.69 31.23,36.62 31.23,36.62" fill="none" stroke="rgb(255, 255, 255)" stroke-width="1.50" stroke-opacity="1.00" stroke-linejoin="round"/>
<path d="M31.38,37.00 C31.38,37.00 31.46,37.00 31.46,37.00 C31.46,37.00 26.43,43.13 26.43,43.13 C26.43,43.13 30.05,45.20 30.05,45.20 C31.19,44.68 34.81,37.67 34.84,37.63 C34.94,37.52 37.86,34.55 39.23,33.56 C39.26,33.54 39.29,33.51 39.33,33.47" fill="none" stroke="rgb(255, 255, 255)" stroke-width="1.50" stroke-opacity="1.00" stroke-linejoin="round"/>
<path d="M38.29,34.88 C38.31,34.91 38.32,34.93 38.33,34.94 C38.33,34.95 39.12,44.47 39.39,46.26 C39.39,46.26 34.31,47.07 34.31,47.07 C34.31,47.07 34.67,38.97 34.67,38.97" fill="none" stroke="rgb(255, 255, 255)" stroke-width="1.50" stroke-opacity="1.00" stroke-linejoin="round"/>
<path d="M22.38,9.50 C22.38,9.50 22.44,9.61 22.44,9.61 C22.83,8.13 26.81,6.18 28.95,6.56 C30.26,6.82 33.63,9.93 33.77,10.45 C33.77,10.45 38.59,7.93 38.59,7.93 C38.59,7.93 35.98,12.39 35.98,12.39 C35.98,12.39 38.40,13.57 38.40,13.57 C38.40,13.57 33.80,14.87 33.80,14.87 C33.78,16.06 31.77,19.71 30.37,21.25 C29.79,21.85 26.97,23.61 25.13,24.41 C22.55,25.49 16.61,25.46 14.47,24.72 C11.80,23.76 7.97,21.02 7.62,20.73" fill="none" stroke="rgb(255, 255, 255)" stroke-width="1.50" stroke-opacity="1.00" stroke-linejoin="round"/>
<path d="M22.50,10.12 C22.50,10.12 22.57,10.15 22.57,10.15 C22.15,9.98 20.61,8.61 20.40,8.45 C15.04,4.50 12.11,1.13 12.00,0.68 C12.00,0.68 12.00,0.78 12.00,0.78" fill="none" stroke="rgb(255, 255, 255)" stroke-width="1.50" stroke-opacity="1.00" stroke-linejoin="round"/>
<path d="M11.25,0.87 C11.24,0.82 11.22,0.79 11.19,0.79 C11.16,0.78 11.07,0.80 10.93,0.83 C9.65,3.68 12.63,8.33 12.84,8.63 C12.84,8.63 8.20,6.03 8.20,6.03 C8.56,9.54 11.00,11.84 11.42,12.15 C11.42,12.15 7.08,9.89 7.08,9.89 C6.77,12.68 13.44,18.33 13.63,18.50 C13.19,18.56 7.50,20.17 6.01,20.00 C5.82,19.98 5.52,19.85 5.41,19.74 C5.36,19.69 5.23,19.54 5.02,19.29" fill="none" stroke="rgb(255, 255, 255)" stroke-width="1.50" stroke-opacity="1.00" stroke-linejoin="round"/>
<path d="M19.12,25.12 C19.12,25.12 19.12,25.22 19.12,25.22 C19.12,25.22 19.57,32.43 19.57,32.43 C19.57,32.43 19.53,32.35 19.53,32.35" fill="none" stroke="rgb(255, 255, 255)" stroke-width="1.00" stroke-opacity="1.00" stroke-linejoin="round"/>
<path d="M25.03,24.63 C25.03,24.62 24.91,26.32 24.80,27.99 C24.70,29.69 24.74,31.02 24.86,32.01 C24.86,32.01 28.80,31.64 28.80,31.64 C28.80,31.64 28.16,31.56 28.16,31.56" fill="none" stroke="rgb(255, 255, 255)" stroke-width="1.00" stroke-opacity="1.00" stroke-linejoin="round"/>
<path d="M19.53,32.26 C19.58,32.29 20.17,32.51 20.41,32.62 C20.99,32.87 21.95,33.38 23.16,34.08 C23.16,34.08 22.86,34.09 22.86,34.09" fill="none" stroke="rgb(255, 255, 255)" stroke-width="1.00" stroke-opacity="1.00" stroke-linejoin="round"/>
</g>
</svg>
